<svg width="655" height="612" viewBox="0 0 655 612" fill="none" xmlns="http://www.w3.org/2000/svg">
<path fill-rule="evenodd" clip-rule="evenodd" d="M411.548 87.1837C410.782 87.1837 410.003 87.1837 409.237 87.1837C409.45 88.1621 408.786 88.2675 408.081 88.3379C408.081 89.1112 408.081 89.8728 408.081 90.6461C409.065 90.4352 409.168 91.0973 409.237 91.8062C410.003 91.8062 410.782 91.8062 411.548 91.8062C411.338 90.8219 412.002 90.7106 412.704 90.6461C412.704 89.8728 412.704 89.1112 412.704 88.3379C411.72 88.5488 411.617 87.8867 411.548 87.1837Z" fill="#F0F1F2"/>
<path fill-rule="evenodd" clip-rule="evenodd" d="M416.172 99.9034C414.634 99.9034 413.093 99.9034 411.549 99.9034C411.549 101.438 411.549 102.985 411.549 104.52C415.531 105.422 417.076 103.881 416.172 99.9034Z" fill="#F0F1F2"/>
<path fill-rule="evenodd" clip-rule="evenodd" d="M507.526 118.405C506.181 119.372 504.425 119.923 501.741 119.559C500.631 115.306 507.424 114.96 507.526 118.405ZM499.43 114.931C499.43 116.858 499.43 118.786 499.43 120.713C502.107 123.045 508.298 121.897 509.838 119.559C512.44 111.316 502.05 111.246 499.43 114.931Z" fill="#F0F1F2"/>
<path fill-rule="evenodd" clip-rule="evenodd" d="M61.1843 113.776C70.6109 120.537 82.2815 125.048 92.4053 131.124C86.3122 121.029 74.8526 116.301 61.1843 113.776Z" fill="#F0F1F2"/>
<path fill-rule="evenodd" clip-rule="evenodd" d="M556.089 128.81C554.469 130.574 551.81 133.79 549.148 131.124C548.697 127.269 555.385 124.668 556.089 128.81ZM547.993 132.279C566.628 137.622 551.123 112.705 547.993 132.279V132.279Z" fill="#F0F1F2"/>
<path fill-rule="evenodd" clip-rule="evenodd" d="M522.555 141.529C521.2 141.629 519.557 139.901 516.776 139.215C512.187 115.733 540.577 140.106 522.555 141.529ZM513.309 139.215C517.852 146.117 529.004 144.746 530.645 138.055C533.494 126.508 511.085 119.571 513.309 139.215Z" fill="#F0F1F2"/>
<path fill-rule="evenodd" clip-rule="evenodd" d="M485.555 157.717C492.426 153.645 500.218 149.55 509.837 154.248C507.502 143.996 484.473 145.226 485.555 157.717Z" fill="#F0F1F2"/>
<path fill-rule="evenodd" clip-rule="evenodd" d="M443.927 169.276C441.643 171.42 435.414 170.999 436.986 165.814C441.078 165.187 442.948 166.786 443.927 169.276ZM431.208 161.185C423.724 174.959 445.026 181.099 450.867 171.59C453.04 159.697 439.247 155.666 431.208 161.185Z" fill="#F0F1F2"/>
<path fill-rule="evenodd" clip-rule="evenodd" d="M395.357 172.75C395.414 174.344 394.819 175.287 394.202 176.219C391.306 176.412 390.586 174.438 389.579 172.75C391.101 171.262 393.847 171.262 395.357 172.75ZM386.111 165.814C383.56 170.571 383.56 174.93 386.111 179.687C390.208 181.568 397.154 181.216 399.987 178.527C401.154 168.725 395.3 161.619 386.111 165.814Z" fill="#F0F1F2"/>
<path fill-rule="evenodd" clip-rule="evenodd" d="M86.6282 164.654C81.8768 171.836 92.7741 188.868 98.1875 178.527C88.5265 179.711 89.3115 170.448 86.6282 164.654Z" fill="#F0F1F2"/>
<path fill-rule="evenodd" clip-rule="evenodd" d="M278.572 181.995C275.551 182.323 273.602 181.579 273.95 178.527C276.97 178.199 278.923 178.955 278.572 181.995ZM270.483 176.218C270.368 181.345 271.851 184.866 276.261 185.469C287.097 183.934 277.149 166.985 270.483 176.218Z" fill="#F0F1F2"/>
<path fill-rule="evenodd" clip-rule="evenodd" d="M2.21048 188.938C-2.06636 188.211 -4.23407 185.358 -3.56618 179.687C1.47816 172.662 8.20393 184.919 2.21048 188.938ZM6.83887 188.938C2.12262 149.151 -21.0661 205.863 6.83887 188.938V188.938Z" fill="#F0F1F2"/>
<path fill-rule="evenodd" clip-rule="evenodd" d="M305.166 197.034C301.08 197.732 298.471 191.041 302.854 190.092C304.914 191.422 308.129 194.082 305.166 197.034ZM297.076 187.784C295.377 192.986 296.469 197.116 299.387 200.497C317.776 203.602 309.605 177.355 297.076 187.784Z" fill="#F0F1F2"/>
<path fill-rule="evenodd" clip-rule="evenodd" d="M524.866 195.869C526.411 195.869 527.956 195.869 529.496 195.869C531.331 201.247 523.516 199.888 524.866 195.869ZM521.399 191.246C516.513 202.097 528.128 207.041 535.279 200.497C537.22 190.936 528.699 187.983 521.399 191.246Z" fill="#F0F1F2"/>
<path fill-rule="evenodd" clip-rule="evenodd" d="M499.429 203.965C498.051 207.422 499.108 207.897 500.585 210.908C504.224 211.072 504.555 207.938 505.207 205.12C503.869 204.153 502.113 203.602 499.429 203.965Z" fill="#F0F1F2"/>
<path fill-rule="evenodd" clip-rule="evenodd" d="M320.201 217.839C318.61 217.792 317.661 218.39 316.734 219.005C315.761 217.657 315.208 215.9 315.579 213.216C318.519 213.363 320.059 214.904 320.201 217.839ZM315.579 222.467C328.154 222.432 324.195 207.006 316.734 207.44C310.356 207.809 308.049 218.554 315.579 222.467Z" fill="#F0F1F2"/>
<path fill-rule="evenodd" clip-rule="evenodd" d="M143.288 208.594C143.112 211.464 143.88 213.392 145.596 214.37C149.809 215.109 150.137 211.98 150.219 208.594C148.742 207.018 144.764 207.018 143.288 208.594Z" fill="#F0F1F2"/>
<path fill-rule="evenodd" clip-rule="evenodd" d="M270.482 209.754C268.578 213.708 269.898 218.94 276.26 217.839C277.588 216.479 277.565 213.755 277.416 210.908C276.055 209.572 273.331 209.595 270.482 209.754Z" fill="#F0F1F2"/>
<path fill-rule="evenodd" clip-rule="evenodd" d="M177.971 225.936C176.436 225.936 174.89 225.936 173.343 225.936C172.816 222.315 174.351 220.774 177.971 221.313C177.971 222.854 177.971 224.401 177.971 225.936ZM172.189 230.564C177.497 229.914 180.912 227.922 181.445 224.781C183.807 210.709 161.948 217.944 172.189 230.564Z" fill="#F0F1F2"/>
<path fill-rule="evenodd" clip-rule="evenodd" d="M284.351 225.936C287.463 228.414 290.496 228.414 293.609 225.936C296.595 215.402 281.365 215.402 284.351 225.936Z" fill="#F0F1F2"/>
<path fill-rule="evenodd" clip-rule="evenodd" d="M597.717 224.781C598.14 228.214 599.725 230.482 602.34 231.724C617.403 231.208 602.489 212.173 597.717 224.781Z" fill="#F0F1F2"/>
<path fill-rule="evenodd" clip-rule="evenodd" d="M156.001 220.153C154.419 221.635 154.419 225.613 156.001 227.09C158.684 227.465 160.442 226.908 161.789 225.936C162.053 221.817 160.126 219.895 156.001 220.153Z" fill="#F0F1F2"/>
<path fill-rule="evenodd" clip-rule="evenodd" d="M190.691 222.467C188.828 222.139 188.705 223.562 187.228 223.627C186.877 226.667 188.828 227.417 191.851 227.089C192.343 224.676 191.06 224.031 190.691 222.467Z" fill="#F0F1F2"/>
<path fill-rule="evenodd" clip-rule="evenodd" d="M165.258 230.564C163.219 230.839 162.616 232.55 162.944 235.186C165.358 235.679 166.002 234.396 167.566 234.032C167.156 232.509 165.528 232.216 165.258 230.564Z" fill="#F0F1F2"/>
<path fill-rule="evenodd" clip-rule="evenodd" d="M174.503 234.032C173.736 234.032 172.962 234.032 172.189 234.032C172.406 235.016 171.744 235.128 171.035 235.186C171.035 235.959 171.035 236.733 171.035 237.5C172.019 237.289 172.125 237.951 172.189 238.66C172.962 238.66 173.736 238.66 174.503 238.66C174.298 237.67 174.96 237.565 175.663 237.5C175.663 236.733 175.663 235.959 175.663 235.186C174.679 235.397 174.568 234.735 174.503 234.032Z" fill="#F0F1F2"/>
<path fill-rule="evenodd" clip-rule="evenodd" d="M550.303 239.809C549.685 243.904 551.287 245.773 553.777 246.751C563.199 245.808 555.555 232.813 550.303 239.809Z" fill="#F0F1F2"/>
<path fill-rule="evenodd" clip-rule="evenodd" d="M620.848 250.22C616.569 251.022 615.734 248.392 616.214 244.437C617.376 244.437 618.525 244.437 619.688 244.437C620.654 245.784 621.214 247.542 620.848 250.22ZM613.903 240.974C610.802 246.154 613.811 253.782 616.214 257.156C633.946 260.472 628.206 233.112 613.903 240.974Z" fill="#F0F1F2"/>
<path fill-rule="evenodd" clip-rule="evenodd" d="M352.58 254.848C348.934 256.137 349.959 254.948 345.638 254.848C345.032 249.991 347.664 248.386 347.949 244.437C349.105 244.437 350.261 244.437 351.417 244.437C352.39 247.32 352.939 250.636 352.58 254.848ZM345.638 242.123C342.354 245.006 341.633 250.454 342.171 257.157C344.506 257.326 350.776 259.623 354.891 257.157C358.015 250.232 354.907 240.43 345.638 242.123Z" fill="#F0F1F2"/>
<path fill-rule="evenodd" clip-rule="evenodd" d="M501.741 266.408C498.063 264.82 496.45 259.887 498.273 256.003C508.881 252.892 512.383 267.122 501.741 266.408ZM498.273 274.504C529.558 279.349 510.243 234.437 492.495 253.694C489.447 262.353 494.093 269.624 498.273 274.504Z" fill="#F0F1F2"/>
<path fill-rule="evenodd" clip-rule="evenodd" d="M552.614 254.848C549.594 254.52 547.648 255.27 547.992 258.311C549.022 259.213 550.608 259.558 552.614 259.471C552.614 257.93 552.614 256.383 552.614 254.848Z" fill="#F0F1F2"/>
<path fill-rule="evenodd" clip-rule="evenodd" d="M452.022 257.156C450.477 257.156 448.939 257.156 447.399 257.156C447.399 258.703 447.399 260.244 447.399 261.779C451.015 262.318 452.56 260.777 452.022 257.156Z" fill="#F0F1F2"/>
<path fill-rule="evenodd" clip-rule="evenodd" d="M464.741 266.407C465.112 269.084 464.551 270.848 463.585 272.19C458.315 272.412 455.809 269.178 457.8 265.253C461.336 264.421 462.018 266.436 464.741 266.407ZM454.333 262.945C448.715 270.707 455.965 278.904 462.423 277.972C474.117 276.285 470.421 255.358 454.333 262.945Z" fill="#F0F1F2"/>
<path fill-rule="evenodd" clip-rule="evenodd" d="M154.847 274.504C153.687 269.102 156.868 268.036 161.789 268.722C162.85 274.024 159.341 274.756 154.847 274.504ZM166.412 277.972C176.055 260.344 146.123 257.051 149.064 273.35C150.4 280.738 158.444 281.142 166.412 277.972Z" fill="#F0F1F2"/>
<path fill-rule="evenodd" clip-rule="evenodd" d="M137.505 271.03C137.358 273.983 135.823 275.518 132.876 275.664C131.91 274.317 131.347 272.559 131.722 269.876C134.406 269.513 136.163 270.063 137.505 271.03ZM127.094 267.567C126.157 273.514 128.031 276.648 130.568 279.127C150.652 281.564 138.934 254.145 127.094 267.567Z" fill="#F0F1F2"/>
<path fill-rule="evenodd" clip-rule="evenodd" d="M564.183 269.876C564.584 273.895 558.755 274.715 557.25 273.35C557.25 271.803 557.25 270.268 557.25 268.722C560.099 268.569 562.817 268.552 564.183 269.876ZM553.778 275.664C556.506 276.016 555.929 279.677 559.561 279.127C563.012 277.187 566.117 274.891 567.651 271.03C565.912 262.242 550.784 264.035 553.778 275.664Z" fill="#F0F1F2"/>
<path fill-rule="evenodd" clip-rule="evenodd" d="M291.297 271.03C289.793 278.98 297.952 281.107 300.542 275.664C301.08 269.67 294.439 266.765 291.297 271.03Z" fill="#F0F1F2"/>
<path fill-rule="evenodd" clip-rule="evenodd" d="M366.452 287.223C358.717 287.1 360.216 300.071 361.829 305.719C355.948 303.305 342.548 306.164 339.859 313.816C344.386 312.052 360.09 307.629 368.764 312.662C366.761 304.828 363.614 296.65 366.452 287.223Z" fill="#F0F1F2"/>
<path fill-rule="evenodd" clip-rule="evenodd" d="M485.556 291.846C482.871 291.483 481.11 292.033 479.77 293C479.725 296.521 479.102 300.61 483.238 299.942C487.231 300.323 487.472 293.902 485.556 291.846Z" fill="#F0F1F2"/>
<path fill-rule="evenodd" clip-rule="evenodd" d="M353.735 314.97C345.547 315.65 339.97 318.936 339.86 327.689C343.464 322.434 349.021 319.124 353.735 314.97Z" fill="#F0F1F2"/>
<path fill-rule="evenodd" clip-rule="evenodd" d="M497.118 326.535C493.348 326.84 491.552 325.158 491.34 321.913C494.005 319.387 497.788 322.252 497.118 326.535ZM499.429 332.318C514.82 301.401 462.171 327.613 499.429 332.318V332.318Z" fill="#F0F1F2"/>
<path fill-rule="evenodd" clip-rule="evenodd" d="M197.633 318.444C196.473 318.444 195.313 318.444 194.159 318.444C193.937 321.754 194.019 324.754 197.633 324.221C199.116 322.704 199.116 319.962 197.633 318.444Z" fill="#F0F1F2"/>
<path fill-rule="evenodd" clip-rule="evenodd" d="M361.829 319.604C368.775 324.602 373.81 331.515 381.488 335.786C381.225 324.098 374.874 318.509 361.829 319.604Z" fill="#F0F1F2"/>
<path fill-rule="evenodd" clip-rule="evenodd" d="M596.554 321.912C592.412 321.238 593.042 325.334 593.087 328.855C595.017 328.855 596.943 328.855 598.877 328.855C598.855 325.785 599.518 322.035 596.554 321.912Z" fill="#F0F1F2"/>
<path fill-rule="evenodd" clip-rule="evenodd" d="M183.76 323.067C181.34 322.574 180.69 323.858 179.137 324.221C180.186 326.248 181.282 328.24 184.914 327.689C185.4 325.275 184.117 324.637 183.76 323.067Z" fill="#F0F1F2"/>
<path fill-rule="evenodd" clip-rule="evenodd" d="M390.734 333.478C395.57 330.39 400.289 335.827 405.77 335.786C406.262 328.275 391.901 326.418 390.734 333.478Z" fill="#F0F1F2"/>
<path fill-rule="evenodd" clip-rule="evenodd" d="M208.039 331.163C206.176 330.835 206.047 332.253 204.57 332.317C204.219 335.37 206.176 336.114 209.199 335.786C209.691 333.372 208.408 332.722 208.039 331.163Z" fill="#F0F1F2"/>
<path fill-rule="evenodd" clip-rule="evenodd" d="M595.406 335.786C593.867 335.786 592.322 335.786 590.777 335.786C590.777 337.327 590.777 338.868 590.777 340.414C594.4 340.953 595.938 339.407 595.406 335.786Z" fill="#F0F1F2"/>
<path fill-rule="evenodd" clip-rule="evenodd" d="M563.028 342.729C558.211 345.078 564.802 356.204 559.561 360.07C565.958 363.076 566.713 347.199 563.028 342.729Z" fill="#F0F1F2"/>
<path fill-rule="evenodd" clip-rule="evenodd" d="M574.585 343.882C583.305 353.397 580.016 368.653 571.118 375.103C586.143 376.369 589.187 345.822 574.585 343.882Z" fill="#F0F1F2"/>
<path fill-rule="evenodd" clip-rule="evenodd" d="M285.513 347.351C287.475 350.784 293.024 350.632 295.919 353.134C297.139 357.961 293.482 360.967 295.919 363.545C300.828 361.898 301.263 355.782 309.794 357.756C313.948 358.617 312.392 365.179 314.418 368.161C321.734 360.99 309.536 350.163 300.542 355.448C297.99 350.79 291.995 344.316 285.513 347.351Z" fill="#F0F1F2"/>
<path fill-rule="evenodd" clip-rule="evenodd" d="M272.793 347.351C270.78 348.394 268.338 349.935 270.482 351.973C274.082 352.518 274.613 349.073 272.793 347.351Z" fill="#F0F1F2"/>
<path fill-rule="evenodd" clip-rule="evenodd" d="M642.819 367.007C637.71 367.101 635.255 364.546 634.717 360.07C638.951 353.831 647.831 360.832 642.819 367.007ZM643.97 372.795C643.997 371.665 645.382 371.893 646.281 371.629C657.008 357.135 633.893 342.541 628.939 356.602C625.987 364.962 633.115 373.293 643.97 372.795Z" fill="#F0F1F2"/>
<path fill-rule="evenodd" clip-rule="evenodd" d="M282.038 357.756C282.038 359.297 282.038 360.838 282.038 362.384C286.49 363.293 286.49 356.848 282.038 357.756Z" fill="#F0F1F2"/>
<path fill-rule="evenodd" clip-rule="evenodd" d="M620.848 369.321C617.793 369.667 617.05 367.721 617.377 364.698C620.489 364.769 622.931 367.341 620.848 369.321ZM615.058 362.384C615.477 366.977 616.306 371.16 619.688 372.795C620.62 372.18 621.565 371.582 623.16 371.629C627.263 366.309 621.187 357.475 615.058 362.384Z" fill="#F0F1F2"/>
<path fill-rule="evenodd" clip-rule="evenodd" d="M372.232 364.698C375.356 368.512 382.05 368.759 387.268 370.475C385.712 365.091 378.806 365.062 372.232 364.698Z" fill="#F0F1F2"/>
<path fill-rule="evenodd" clip-rule="evenodd" d="M231.165 370.475C227.224 366.849 216.186 367.089 214.974 372.795C219.917 373.129 232.79 376.926 238.099 370.475C241.853 371.342 245.434 372.397 245.045 377.418C260.356 375.976 266.374 383.833 271.638 392.445C275.208 380.376 266.392 370.715 251.98 372.795C248.787 366.948 234.266 359.76 231.165 370.475Z" fill="#F0F1F2"/>
<path fill-rule="evenodd" clip-rule="evenodd" d="M294.764 367.007C291.715 366.661 290.965 368.606 291.297 371.629C292.448 371.629 293.608 371.629 294.764 371.629C294.764 370.094 294.764 368.553 294.764 367.007Z" fill="#F0F1F2"/>
<path fill-rule="evenodd" clip-rule="evenodd" d="M187.228 372.796C184.205 372.462 182.249 373.211 182.6 376.258C184.768 378.531 188.178 376.926 187.228 372.796Z" fill="#F0F1F2"/>
<path fill-rule="evenodd" clip-rule="evenodd" d="M409.237 386.669C406.983 384.436 408.025 379.591 412.705 380.88C413.62 384.876 411.629 385.966 409.237 386.669ZM411.549 390.131C410.354 393.178 410.164 397.232 410.393 401.696C416.144 392.094 419.215 378.707 434.675 382.04C439.481 383.077 441.574 386.962 445.087 391.291C449.939 379.562 426.756 372.409 418.483 380.88C413.929 377.846 407.407 375.865 403.459 380.88C402.761 387.36 405.072 390.828 411.549 390.131Z" fill="#F0F1F2"/>
<path fill-rule="evenodd" clip-rule="evenodd" d="M202.255 395.914C199.999 395.234 187.55 389.346 180.285 393.6C176.951 389.733 171.86 382.351 164.097 386.669C167.782 391.069 175.627 391.326 175.662 399.388C186.39 393.664 199.824 400.021 204.569 402.851C206.069 396.26 206.057 388.163 210.352 384.355C216.982 383.118 219.127 386.37 224.226 386.669C219.751 373.446 198.177 378.607 202.255 395.914Z" fill="#F0F1F2"/>
<path fill-rule="evenodd" clip-rule="evenodd" d="M336.388 392.445C343.998 387.629 360.995 379.955 366.453 392.445C370.263 377.576 336.29 376.82 336.388 392.445Z" fill="#F0F1F2"/>
<path fill-rule="evenodd" clip-rule="evenodd" d="M190.69 382.04C190.69 383.581 190.69 385.122 190.69 386.668C193.719 386.991 195.67 386.247 195.312 383.2C194.287 382.304 192.705 381.952 190.69 382.04Z" fill="#F0F1F2"/>
<path fill-rule="evenodd" clip-rule="evenodd" d="M231.165 387.822C237.58 388.73 245.349 388.285 249.668 391.291C249.668 395.527 249.668 399.768 249.668 404.01C268.034 395.474 240.96 371.518 231.165 387.822Z" fill="#F0F1F2"/>
<path fill-rule="evenodd" clip-rule="evenodd" d="M177.972 386.669C179.7 388.497 184.563 388.362 183.76 384.355C182.032 382.521 177.169 382.661 177.972 386.669Z" fill="#F0F1F2"/>
<path fill-rule="evenodd" clip-rule="evenodd" d="M426.584 384.355C425.612 385.696 425.058 387.454 425.429 390.131C429.193 390.436 430.99 388.76 431.207 385.515C430.177 384.612 428.598 384.267 426.584 384.355Z" fill="#F0F1F2"/>
<path fill-rule="evenodd" clip-rule="evenodd" d="M467.057 393.599C470.17 396.658 475.418 397.577 478.615 400.542C480.509 410.912 475.868 414.755 473.992 421.358C491.923 419.741 484.782 389.598 467.057 393.599Z" fill="#F0F1F2"/>
<path fill-rule="evenodd" clip-rule="evenodd" d="M433.519 398.228C435.247 400.062 440.11 399.921 439.298 395.914C437.57 394.086 432.707 394.226 433.519 398.228Z" fill="#F0F1F2"/>
<path fill-rule="evenodd" clip-rule="evenodd" d="M561.872 409.793C557.993 410.584 557.645 407.854 557.25 405.171C558.725 405.1 558.847 403.683 560.717 404.011C561.369 406.419 564.019 407.743 561.872 409.793ZM557.25 414.416C564.001 414.767 566.793 411.89 567.651 408.639C572.773 389.124 539.353 399.786 557.25 414.416Z" fill="#F0F1F2"/>
<path fill-rule="evenodd" clip-rule="evenodd" d="M534.119 408.639C531.103 412.781 523.871 410.467 524.866 404.011C529.432 400.29 532.258 406.032 534.119 408.639ZM535.279 412.101C534.364 380.347 504.391 419.495 535.279 412.101V412.101Z" fill="#F0F1F2"/>
<path fill-rule="evenodd" clip-rule="evenodd" d="M270.482 401.696C268.938 401.696 267.393 401.696 265.855 401.696C265.855 403.237 265.855 404.778 265.855 406.319C269.83 407.227 271.375 405.68 270.482 401.696Z" fill="#F0F1F2"/>
<path fill-rule="evenodd" clip-rule="evenodd" d="M415.016 416.736C418.918 415.177 423.216 412.078 426.585 412.101C435.441 412.172 436.208 418.944 441.616 423.666C448.322 408.205 417.087 400.735 415.016 416.736Z" fill="#F0F1F2"/>
<path fill-rule="evenodd" clip-rule="evenodd" d="M605.813 424.821C604.268 424.821 602.73 424.821 601.191 424.821C599.531 423.286 599.531 418.271 601.191 416.736C606.442 415.628 608.468 421.592 605.813 424.821ZM596.556 416.736C596.014 425.371 598.954 430.527 608.124 429.455C618.091 422.137 604.452 405.973 596.556 416.736Z" fill="#F0F1F2"/>
<path fill-rule="evenodd" clip-rule="evenodd" d="M630.093 432.917C625.997 435.73 621.981 434.751 618.525 431.763C617.152 421.171 632.6 421.464 630.093 432.917ZM627.782 417.884C609.44 411.644 609.577 439.989 623.16 441.014C636.731 442.034 640.438 422.19 627.782 417.884Z" fill="#F0F1F2"/>
<path fill-rule="evenodd" clip-rule="evenodd" d="M393.046 419.044C388.674 418.054 388.956 424.217 390.734 425.981C395.105 426.965 394.831 420.807 393.046 419.044Z" fill="#F0F1F2"/>
<path fill-rule="evenodd" clip-rule="evenodd" d="M378.017 420.198C372.082 419.717 374.394 429.39 379.177 428.289C380.706 424.85 380.355 422.424 378.017 420.198Z" fill="#F0F1F2"/>
<path fill-rule="evenodd" clip-rule="evenodd" d="M561.872 429.455C559.298 428.969 560.763 423.104 563.028 423.666C563.921 424.457 566.038 430.556 561.872 429.455ZM560.717 432.917C581.783 427.111 547.054 412.699 560.717 432.917V432.917Z" fill="#F0F1F2"/>
<path fill-rule="evenodd" clip-rule="evenodd" d="M18.4042 427.141C31.2523 432.672 53.2283 424.311 63.4927 422.512C64.8812 422.272 69.6502 421.142 64.6586 421.358C54.3883 421.792 35.8045 428.389 18.4042 427.141Z" fill="#F0F1F2"/>
<path fill-rule="evenodd" clip-rule="evenodd" d="M399.987 425.981C398.832 425.981 397.676 425.981 396.513 425.981C395.552 427.322 394.991 429.08 395.357 431.763C396.708 431.576 397.417 432.015 397.676 432.917C400.415 432.279 402.475 428.441 399.987 425.981Z" fill="#F0F1F2"/>
<path fill-rule="evenodd" clip-rule="evenodd" d="M504.052 438.706C510.54 434.968 517.063 440.018 521.399 442.168C521.354 435.437 505.906 429.56 504.052 438.706Z" fill="#F0F1F2"/>
<path fill-rule="evenodd" clip-rule="evenodd" d="M-197.829 445.637C-200.788 445.59 -199.241 446.498 -198.983 447.951C-136.541 481.223 -35.4669 460.53 40.3739 451.425C42.442 451.742 42.7466 450.33 41.5222 450.259C-35.2619 456.903 -134.25 479.635 -197.829 445.637Z" fill="#F0F1F2"/>
<path fill-rule="evenodd" clip-rule="evenodd" d="M632.405 453.733C629.563 456.282 624.155 456.27 623.16 460.676C626.787 462.457 629.608 461.408 632.405 459.51C632.405 457.582 632.405 455.661 632.405 453.733Z" fill="#F0F1F2"/>
<path fill-rule="evenodd" clip-rule="evenodd" d="M611.59 458.356C609.737 463.4 608.787 471.263 602.34 474.549C613.372 477.086 616.477 464.695 611.59 458.356Z" fill="#F0F1F2"/>
<path fill-rule="evenodd" clip-rule="evenodd" d="M431.208 466.452C438.337 459.697 447.536 465.585 447.399 475.703C460.329 467.395 433.393 449.802 431.208 466.452Z" fill="#F0F1F2"/>
<path fill-rule="evenodd" clip-rule="evenodd" d="M506.364 468.761C503.498 471.497 499.109 469.224 500.585 464.138C504.356 463.834 506.153 465.509 506.364 468.761ZM495.962 464.138C493.742 474.719 508.007 477.59 510.998 469.921C512.76 461.303 500.356 459.504 495.962 464.138Z" fill="#F0F1F2"/>
<path fill-rule="evenodd" clip-rule="evenodd" d="M545.68 476.858C544.12 477.227 543.472 478.504 541.058 478.012C541.058 476.858 541.058 475.703 541.058 474.549C543.69 474.221 545.406 474.819 545.68 476.858ZM537.591 472.229C537.728 475.569 536.957 479.805 538.747 481.48C543.159 482.043 546.127 481.158 547.992 479.172C550.269 471.456 542.374 469.194 537.591 472.229Z" fill="#F0F1F2"/>
<path fill-rule="evenodd" clip-rule="evenodd" d="M628.939 494.199C629.545 495.131 630.14 496.08 630.094 497.673C631.777 499.372 637.658 499.372 639.347 497.673C641.715 487.731 630.54 488.106 628.939 494.199Z" fill="#F0F1F2"/>
<path fill-rule="evenodd" clip-rule="evenodd" d="M621.999 498.828C620.459 498.828 618.914 498.828 617.376 498.828C617.003 501.511 617.564 503.269 618.525 504.616C622.141 505.137 622.228 502.138 621.999 498.828Z" fill="#F0F1F2"/>
<path fill-rule="evenodd" clip-rule="evenodd" d="M347.949 502.296C310.006 507.522 267.736 514.588 235.788 521.952C270.505 514.441 306.282 491.516 347.949 502.296ZM476.303 479.172C472.081 478.387 467.893 477.555 462.423 478.012C463.3 469.61 474.697 474.883 476.303 479.172ZM569.962 466.452C566.312 467.021 565.884 464.367 561.872 465.298C561.872 463.757 561.872 462.211 561.872 460.676C566.77 460.4 568.722 463.072 569.962 466.452ZM368.764 496.513C363.054 496.59 360.594 499.912 354.891 499.982C344.62 494.932 334.562 493.197 321.357 494.199C271.329 498.002 224.459 530.447 168.72 534.671C139.21 536.915 112.295 534.413 83.1541 532.363C79.6857 532.363 76.2174 532.363 72.749 532.363C71.1262 532.445 68.3258 532.105 70.4349 531.209C72.3624 531.209 74.2899 531.209 76.2174 531.209C106.636 530.781 135.472 528.783 158.315 520.798C134.552 524.905 103.484 530.957 75.0632 528.894C64.2246 528.104 52.976 523.141 43.8422 527.734C53.1048 527.729 60.7855 529.287 68.1206 531.209C20.6535 528.186 -20.8027 519.146 -59.0717 506.924C-35.0042 509.643 -5.54071 510.363 18.4037 506.924C-13.1512 506.485 -47.4772 508.817 -72.9508 502.296C9.42828 507.411 81.0333 497.117 146.75 481.48C188.212 471.626 229.082 455.737 269.326 453.733C309.223 451.741 335.352 457.155 361.83 467.607C374.577 472.645 389.453 477.531 394.202 488.423C367.071 471.169 326.552 451.624 283.195 461.824C327.319 457.588 363.747 470.56 388.423 489.577C359.931 477.584 330.179 464.63 291.297 468.761C276.627 470.325 260.653 477.039 245.045 481.48C199.297 494.51 148.906 506.133 99.3475 512.701C134.271 509.315 166.969 504.927 199.941 496.513C231.188 488.546 261.877 474.086 291.297 471.081C327.92 467.325 360.159 476.817 383.8 491.891C372.929 497.521 368.421 489.999 359.519 486.108C319.297 468.556 267.782 483.378 235.788 501.142C268.857 485.118 336.61 466.781 368.764 496.513ZM321.357 449.111C311.546 446.586 298.055 447.746 287.825 445.637C294.352 432.021 317.794 435.273 321.357 449.111ZM534.119 443.328C551.082 432.917 568.475 453.089 554.938 466.452C552.569 463.382 546.218 458.25 541.058 461.824C551.7 466.599 557.741 475.979 558.405 490.731C565.134 488.798 559.766 474.62 561.872 471.081C579.517 471.913 587.687 492.799 579.22 509.238C565.392 510.17 560.339 504.581 551.466 499.982C530.828 489.296 506.672 481.562 479.77 479.172C480.423 472.499 483.741 468.491 486.704 464.138C480.171 459.68 479.221 469.37 475.148 471.081C474.17 469.358 471.424 469.405 469.369 468.761C467.046 452.825 486.315 453.206 497.118 457.202C491.751 444.6 469.529 451.466 463.585 458.356C460.18 455.21 455.775 453.06 450.866 451.425C450.362 427.48 483.977 430.386 492.495 444.482C496.957 420.075 524.546 428.312 534.119 443.328ZM310.951 431.763C307.087 428.635 299.558 432.911 297.076 430.609C301.904 429.349 309.479 423.871 310.951 431.763ZM324.824 431.763C322.176 433.351 322.112 437.522 319.046 438.706C318.027 435.097 313.587 434.903 312.107 431.763C315.528 426.045 321.792 424.328 324.824 431.763ZM316.734 421.358C316.7 429.877 297.716 417.96 293.608 428.289C292.99 437.704 282.772 437.499 282.039 446.791C278.962 446.791 275.872 446.791 272.794 446.791C270.768 438.413 262.747 436.022 258.914 429.455C264.543 422.214 280.959 422.067 287.825 428.289C285.621 412.441 316.779 410.092 316.734 421.358ZM353.735 419.044C360.8 426.508 357.962 436.679 362.986 445.637C375.721 433.849 390.7 439.831 395.357 452.579C399.945 432.835 438.885 425.963 443.927 450.259C429.948 446.363 419.799 451.999 413.86 459.51C411.834 455.11 398.103 452.286 394.202 457.202C402.356 459.071 410.404 461.045 416.172 465.298C425.703 451.208 457.251 451.97 464.741 468.761C458.99 469.183 457.864 474.221 455.489 478.012C437.661 477.918 420.721 478.709 406.926 482.646C387.599 464.578 357.424 457.36 327.135 450.259C315.716 434.944 338.04 426.42 347.949 434.072C345.066 426.508 332.845 423.409 325.979 429.455C327.398 422.922 317.615 423.063 320.201 419.044C330.282 410.01 345.192 410.022 353.735 419.044ZM65.8124 399.388C60.6978 399.868 57.7039 398.24 55.4073 395.914C58.8054 397.138 63.0588 397.501 65.8124 399.388ZM631.25 384.355C628.401 384.501 625.677 384.525 624.311 383.2C624.311 381.654 624.311 380.119 624.311 378.572C625.654 377.605 627.412 377.043 630.094 377.418C630.071 380.136 632.085 380.816 631.25 384.355ZM187.228 260.631C187.21 263.689 187.867 267.433 184.914 267.567C183.818 264.029 179.284 263.935 179.137 259.471C181.85 259.84 183.473 261.299 187.228 260.631ZM243.884 268.722C237.82 275.272 229.597 269.964 226.542 264.093C227.297 259.84 230.806 258.334 233.476 256.002C235.479 261.709 241.028 263.865 243.884 268.722ZM231.165 247.906C231.028 253.553 226.759 255.065 221.914 256.002C218.59 253.934 216.175 250.946 214.974 246.751C220.695 249.816 227.304 247.917 231.165 247.906ZM277.417 236.341C274.098 236.2 271.924 234.894 272.794 230.564C276.428 230.4 276.765 233.528 277.417 236.341ZM589.621 229.41C586.355 230.359 586.623 227.781 583.842 228.25C583.671 225.379 583.625 222.643 586.153 222.467C586.801 225.297 590.628 224.934 589.621 229.41ZM108.598 219.005C109.096 223.733 106.155 225.039 103.97 227.09C99.6229 226.105 91.0809 218.062 95.8792 215.531C99.5818 217.224 102.705 219.497 108.598 219.005ZM122.472 212.062C117.334 212.578 113.865 211.418 114.375 206.28C119.003 206.28 123.022 206.883 122.472 212.062ZM582.687 213.216C579.758 211.91 576.13 211.295 574.585 208.594C578.231 208.377 576.072 202.366 580.37 202.811C580.759 206.66 583.723 207.943 582.687 213.216ZM5.68457 208.594C3.89185 209.883 3.27075 212.355 -0.0979614 212.062C-4.33966 210.316 -5.75751 205.143 -2.41803 201.657C3.05402 201.206 5.9248 203.344 5.68457 208.594ZM594.244 181.995C590.154 184.808 586.138 183.829 582.687 180.841C582.698 177.771 582.252 174.238 583.842 172.75C589.719 173.418 593.592 176.096 594.244 181.995ZM576.908 166.968C573.452 168.345 572.971 167.284 569.962 165.814C570.18 162.556 571.976 160.887 575.748 161.185C576.713 162.527 577.274 164.285 576.908 166.968ZM535.279 156.557C535.359 160.494 531.876 160.869 529.496 162.339C529.397 157.805 527.452 155.127 526.022 151.929C530.107 152.473 532.35 154.852 535.279 156.557ZM494.806 125.336C489.325 124.486 486.853 126.643 482.082 126.49C482.345 124.311 480.784 123.942 480.926 121.873C487.128 121.452 492.3 122.061 494.806 125.336ZM373.387 202.811C368.913 210.445 355.051 211.623 346.794 206.28C330.328 169.552 302.934 137.592 279.728 111.463C318.984 133.878 352.092 162.433 373.387 202.811ZM442.771 118.405C438.119 119.19 436.169 117.292 432.363 117.245C430.699 106.647 444.412 110.08 442.771 118.405ZM472.836 118.405C463.9 116.87 459.013 118.071 450.866 119.559C448.619 102.469 473.095 104.42 472.836 118.405ZM-97.2293 415.57C-148.024 406.149 -195.702 397.261 -233.672 368.161C-249.497 356.04 -264.671 340.959 -282.235 325.381C-297.058 312.252 -321.26 287.669 -321.553 267.567C-322.549 199.196 -263.933 136.034 -216.325 114.931C-203.237 102.979 -183.838 97.3197 -161.985 94.1151C-162.003 92.2109 -165.19 93.4705 -165.454 91.8066C-143.495 92.8846 -112.046 89.5452 -91.4468 95.275C-200.378 120.86 -256.293 205.629 -249.866 342.729C-253.826 212.215 -194.402 125.301 -100.698 97.5892C-73.0505 89.4105 -51.3206 112.335 -35.9415 123.028C-79.0966 120.409 -110.025 146.093 -130.764 171.59C-150.989 196.455 -169.432 226.604 -170.076 260.631C-164.124 228.174 -149.342 199.027 -127.29 172.75C-108.425 150.259 -59.3294 108.176 -24.3881 133.433C-62.4872 136.186 -79.9871 159.539 -90.2985 190.092C-75.6517 164.958 -58.017 130.732 -18.5939 138.055C-16.8011 142.168 -22.5251 138.758 -22.0681 141.529C-15.2486 138.799 -13.3621 145.215 -10.503 149.62C-26.9249 155.561 -38.3787 166.464 -46.3582 180.841C-40.3824 176.312 -35.2384 165.796 -27.8506 160.025C-22.3376 155.725 -12.6883 148.677 -7.04047 154.249C-21.6404 158.531 -31.483 167.577 -38.2556 179.687C-29.0458 170.008 -20.9549 159.211 -5.88049 155.403C3.30591 165.814 10.7993 192.178 26.5005 193.56C32.9568 194.135 36.3196 187.374 43.8422 190.092C33.6246 201.077 8.50256 213.328 11.4671 237.501C15.744 209.385 38.1007 193.238 61.184 187.784C60.6391 191.416 62.6252 192.506 64.6581 193.56C59.3502 202.126 49.238 205.893 46.1505 216.691C53.5618 210.217 58.0613 200.837 69.2865 198.189C40.3094 216.064 23.993 256.905 33.4372 305.719C24.6609 289.76 30.4141 249.154 34.5914 232.878C28.3109 233.974 28.3753 243.272 27.6547 247.906C26.647 254.356 25.6685 261.697 25.3463 267.567C22.8505 311.719 43.3677 340.092 58.8698 358.91C38.1301 338.991 6.21179 314.712 2.21033 275.664C-1.34003 240.987 7.6062 208.957 21.8721 194.72C15.9197 195.658 13.3653 201.927 9.15289 207.44C7.95184 189.84 -17.7385 203.169 -4.72632 214.371C-1.5802 216.943 4.55377 215.097 6.83868 213.216C-26.2688 306.979 47.7501 365.372 103.97 395.914C30.4727 370.739 -15.9516 318.491 -32.4731 236.341C-22.9703 320.12 25.7388 364.687 85.4624 398.228C76.9263 400.314 68.8179 393.102 61.184 388.977C53.802 384.981 45.3655 380.763 38.0597 376.258C-15.7231 343.109 -77.4327 310.09 -81.0417 230.564C-84.0589 286.333 -50.7523 317.015 -19.754 340.414C9.77386 362.707 40.4149 381.595 66.9666 398.228C9.60406 373.106 -58.5326 358.758 -84.5042 302.251C-68.2229 361.898 0.564026 369.046 50.7789 394.766C-29.9949 375.057 -101.559 340.801 -107.634 250.22C-110.54 206.977 -92.8821 171.221 -81.0417 148.46C-111.12 181.749 -122.668 262.054 -98.3834 310.348C-120.014 293.814 -129.065 264.714 -135.387 232.878C-131.913 271.03 -117.834 298.578 -94.9209 317.29C-73.8179 371.342 -6.99371 379.679 46.1505 401.696C4.00305 406.254 -33.4573 419.87 -77.5733 416.736C-100.926 415.066 -119.873 394.836 -135.387 380.88C-150.303 367.464 -162.548 352.302 -171.23 338.1C-156.572 373.932 -126.218 394.068 -97.2293 415.57ZM448.554 101.057C446.987 102.188 446.243 104.139 445.087 105.68C437.478 105.575 433.622 101.72 433.519 94.1151C434.423 93.8631 434.864 93.1482 434.675 91.8066C442.256 88.2621 447.662 94.3317 448.554 101.057ZM-138.861 88.3383C-123.57 86.897 -125.943 91.8008 -138.861 88.3383V88.3383ZM102.81 74.4649C70.3119 60.7029 34.7026 50.0634 -9.34888 47.8664C37.4152 44.7086 94.1977 56.4026 129.403 74.4649C120.55 74.4649 111.68 74.4649 102.81 74.4649ZM17.2438 104.52C17.2321 106.037 14.0391 106.002 13.7754 104.52C-26.9835 89.3929 -67.3675 73.8908 -121.514 72.1508C-122.726 72.0805 -122.422 70.6625 -120.354 70.9907C-63.0731 67.2177 -13.3094 80.1127 20.7179 103.366C19.1185 103.313 18.1753 103.911 17.2438 104.52ZM-19.754 124.182C-44.8585 102.534 -70.6484 85.4559 -111.103 82.55C-126.353 81.4661 -142.511 83.8975 -160.831 83.71C-102.233 63.5092 -31.4537 88.1391 12.6212 107.988C6.80945 111.047 1.58936 114.691 -4.72632 117.245C-12.8641 113.425 -21.7224 104.186 -30.1648 104.52C-21.5818 108.276 -13.778 112.804 -8.1947 119.559C-11.8329 121.311 -15.1315 123.414 -19.754 124.182ZM140.974 76.7733C142.333 76.5916 144.254 76.9666 144.442 75.6191C105.429 63.1518 62.7599 46.724 11.4671 44.3981C-18.5822 43.0272 -49.4224 48.4288 -78.7275 49.0205C-46.2001 31.2863 2.90167 29.886 51.939 30.5187C124.54 31.462 186.665 48.7512 243.884 62.8999C317.821 81.1732 373.886 129.97 415.016 176.219C412.293 189.325 416.675 208.922 404.614 209.754C396.771 210.287 398.87 203.192 391.89 200.497C386.489 200.878 386.889 207.053 381.489 207.44C364.164 180.296 344.803 151.987 319.046 132.278C296.228 114.82 268.457 101.591 241.573 86.0182C214.447 70.3287 182.459 57.668 147.91 57.1173C243.649 72.7659 306.928 127.041 339.86 201.657C335.832 198.365 335.786 191.076 328.291 191.246C335.946 218.126 326.357 243.752 300.542 244.437C298.243 249.839 294.809 254.122 288.981 256.002C284.117 255.85 283.435 251.521 278.572 251.38C276.021 259.611 275.146 269.536 270.482 275.664C261.614 278.137 259.241 273.86 253.135 271.03C254.824 265.786 262.891 266.911 262.381 259.471C257.7 264.257 244.141 266.993 241.573 258.311C248.313 251.55 266.644 266.132 267.01 247.906C272.812 247.654 281.307 251.89 283.195 245.597C281.433 236.481 284.351 227.506 276.261 225.936C262.175 223.205 266.851 244.443 278.572 242.123C272.816 245.808 267.038 240.94 261.225 240.975C261.237 244.572 263.967 248.503 261.225 251.38C255.355 251.474 251.51 249.528 248.512 246.751C246.876 249.751 247.082 254.579 241.573 253.694C236.909 251.022 235.005 245.615 233.476 239.809C212.491 254.579 204.757 223.475 197.633 209.754C207.698 208.166 206.046 218.284 211.506 221.313C213.018 217.423 212.684 211.699 216.129 209.754C232.069 206.532 232.813 218.501 239.255 224.781C244.164 217.3 255.126 215.964 263.543 217.839C260.619 212.273 264.543 207.557 267.01 203.966C274.316 200.392 280.548 205.12 286.669 206.28C282.016 190.953 255.843 194.363 255.447 210.908C251.476 210.404 248.965 211.365 246.196 212.062C244.038 163.781 223.888 126.812 198.787 102.212C195.295 98.7843 188.669 93.4119 190.69 91.8066C190.702 92.9725 192.718 93.2654 193.005 91.8066C175.007 84.7527 161.918 72.7835 146.75 62.8999C205.829 81.3021 260.71 103.882 293.608 148.46C275.448 121.217 245.647 96.9097 210.352 82.55C166.898 64.886 115.898 46.5247 71.5949 39.7697C108.036 48.8096 143.329 58.9979 166.412 81.3957C160.032 81.009 151.824 72.1624 146.75 77.9332C160.096 79.2397 166.922 87.0552 176.817 91.8066C175.2 86.8794 168.369 87.1549 166.412 82.55C211.84 106.125 238.838 154.278 242.729 215.531C235.944 214.224 235.41 206.661 228.853 205.12C222.674 203.883 214.031 207.492 212.661 203.966C213.657 207.656 210.844 207.539 210.352 209.754C205.173 207.984 202.091 204.135 194.159 205.12C183.162 178.738 164.221 154.126 143.288 141.529C158.468 152.731 173.343 170.864 182.6 187.784C185.711 193.467 190.122 200.526 188.382 206.28C185.822 190.373 166.318 177.262 150.219 188.938C150.347 181.972 145.045 175.246 139.819 177.373C143.674 182.376 145.356 189.565 147.91 195.869C160.999 182.616 184.832 191.492 184.914 210.908C188.552 211.465 187.533 207.358 191.85 208.594C195.899 216.421 203.796 225.508 202.255 235.186C195.325 241.502 191.768 232.257 182.6 234.032C178.299 237.676 179.659 249.159 186.068 249.06C192.354 244.935 199.344 241.52 205.73 237.501C207.06 244.226 216.564 249.968 211.506 256.002C213.574 259.723 217.205 261.867 221.914 262.945C218.475 279.73 191.839 269.817 193.005 254.848C168.515 253.512 157.483 238.719 147.91 222.467C141.173 229.574 122.196 228.437 120.158 217.839C147.442 207.785 97.6485 183.12 108.598 215.531C94.0454 209.027 78.5081 203.21 69.2865 191.246C64.8222 185.469 65.9412 176.049 57.7156 172.75C54.2824 175.481 54.6046 181.972 50.7789 184.31C43.9183 183.853 40.5262 179.921 35.7455 177.373C33.1852 179.435 32.2303 183.109 27.6547 183.15C5.88379 169.844 -1.2522 141.91 -19.754 125.336C-14.405 124.522 -11.2295 121.528 -5.88049 120.713C4.02655 130.081 9.48676 143.89 19.552 153.094C14.0975 139.28 3.95624 130.152 -3.56635 118.405C4.20227 116.15 8.0105 109.928 16.0896 107.988C24.1395 111.89 32.1658 115.821 39.2139 120.713C33.8473 113.753 24.4441 110.818 17.2438 105.68C26.9868 100.308 37.3508 110.637 44.9964 116.085C60.3168 127.006 71.7472 141.699 81.9999 151.929C68.2203 130.638 49.947 113.841 26.5005 102.212C24.9656 99.3174 31.0645 98.591 27.6547 97.5892C26.6704 99.3058 24.737 100.073 21.8721 99.9033C-10.9835 80.3411 -52.1583 69.0807 -101.852 66.3682C-13.1805 58.8925 44.721 96.0836 101.656 126.49C89.5986 107.274 57.4871 102.13 43.8422 88.3383C13.7871 78.689 -22.2145 64.9739 -61.3799 60.5799C-49.7211 59.3437 -36.3691 62.5367 -27.8506 60.5799C-51.262 55.641 -81.4987 60.9196 -104.166 59.4256C-42.7141 41.5976 42.5767 50.04 91.2567 74.4649C89.2178 75.127 84.4606 73.0647 84.3082 75.6191C88.9366 75.6191 93.565 75.6191 98.1875 75.6191C148.367 105.991 191.54 143.381 212.661 202.811C195.407 141.828 150.863 108.129 105.124 75.6191C152.38 70.7622 165.492 100.05 191.85 116.085C177.18 100.694 158.561 89.2464 140.974 76.7733ZM167.566 39.7697C131.16 33.495 71.5187 29.7807 25.3463 25.8964C18.433 26.7166 6.45789 28.5739 -0.0979614 25.8964C59.5025 18.8601 118.921 28.5151 167.566 39.7697ZM124.78 12.0173C186.677 20.2487 233.911 38.3344 278.572 61.7399C322.993 85.0282 361.287 117.749 415.016 129.958C397.847 119.36 379.12 116.29 362.986 107.988C346.76 99.6514 331.438 89.9084 316.734 80.2415C286.513 60.3688 253.982 43.777 218.441 30.5187C211.506 27.9292 189.443 22.2347 206.884 25.8964C299.885 45.4176 342.938 113.46 441.615 123.028C444.675 124.199 444.744 128.377 447.399 129.958C455.832 118.704 484.896 121.774 477.459 141.529C476.097 139.496 466.916 139.385 467.057 142.684C475.09 140.774 478.912 148.068 482.082 147.306C482.265 144.429 480.269 143.726 479.77 141.529C485.183 136.907 495.939 129.285 505.207 135.747C506.444 140.85 502.926 144.681 505.207 147.306C521.171 146.761 523.328 160.025 527.178 171.59C551.952 151.659 584.227 181.954 569.962 212.062C579.22 215.419 578.624 225.648 573.436 232.878C582.602 232.029 592.397 234.8 597.718 240.975C599.016 252.669 595.4 259.465 589.621 264.093C584.975 263.73 585.044 258.656 579.22 259.471C570.152 262.189 573.418 273.502 580.37 274.504C585.181 275.195 587.435 267.544 593.088 267.567C600.526 267.585 601.029 269.126 602.34 277.972C601.052 281.693 592.786 278.435 591.932 282.595C593.575 286.397 600.995 289.133 597.718 294.16C593.992 297.429 587.229 293.908 582.687 294.16C587.431 308.367 575.878 319.651 563.028 312.662C561.163 315.808 562.284 321.942 559.561 324.221C550.803 326.043 551.414 318.491 544.525 318.444C541.202 335.394 519.305 324.28 512.149 318.444C513.618 331.796 539.989 342.758 546.836 326.535C550.944 327.83 552.649 331.515 559.561 330.004C565.305 319.183 582.893 320.19 590.777 311.508C600.606 316.077 611.511 335.253 598.878 345.037C594.656 346.097 591.665 340.016 588.465 343.883C607.227 353.479 608.467 390.559 584.998 395.914C597.386 395.967 605.686 391.936 608.124 382.04C628.522 393.277 656.607 423.174 638.184 451.425C639.683 455.561 640.587 465.111 637.028 467.607C630.632 469.23 627.027 463.716 623.16 466.452C623.354 477.338 622.393 488.452 611.591 489.577C605.904 490.174 604.618 484.497 598.878 486.108C600.137 497.785 594.85 502.905 587.309 505.764C595.251 482.207 579.077 479.91 571.118 467.607C567.662 462.258 569.836 457.372 563.028 457.202C564.424 439.221 552.752 434.329 535.279 435.232C528.707 425.992 518.607 420.292 504.052 419.044C508.126 398.392 495.802 384.132 476.303 383.2C473.186 372.374 462.171 364.804 448.554 368.161C444.938 362.555 440.029 356.11 446.238 349.659C459.872 346.824 457.56 359.924 463.585 364.699C466.675 363.545 462.052 354.686 467.057 355.448C474.862 354.598 478.221 364.283 482.082 363.545C485.091 355.559 470.284 345.927 463.585 354.288C463.041 344.732 444.252 341.791 438.142 348.505C437.077 341.709 427.202 334.544 420.801 340.414C427.976 342.119 437.192 347.896 434.675 355.448C430.498 352.794 414.627 350.322 413.86 357.756C427.408 361.172 444.893 360.644 447.399 375.104C452.845 374.764 455.58 371.729 462.423 372.795C469.175 376.065 471.269 383.997 475.148 390.131C481.269 389.797 484.702 392.141 490.179 392.446C501.386 401.726 501.885 425.096 491.339 435.232C480.434 420.585 450.118 422.542 445.087 441.014C440.384 430.92 425.337 423.286 411.549 429.455C413.352 407.25 375.103 399.177 366.452 417.884C377.712 407.227 405.702 412.822 406.926 429.455C403.413 434.804 398.481 438.735 395.357 444.482C393.412 433.579 376.111 433.62 366.452 434.072C368.547 407.754 332.559 400.396 316.734 415.57C314.143 411.223 309.262 409.166 301.698 409.793C299.273 403.378 286.674 391.157 279.728 400.542C287.578 401.556 292.567 405.44 295.92 410.947C288.294 411.803 286.342 418.329 280.884 421.358C269.7 416.736 260.23 423.819 254.291 428.289C244.885 419.577 230.81 415.54 219.603 408.639C230.879 403.325 240.148 413.607 245.045 414.416C243.249 397.601 221.125 401.386 211.506 408.639C193.139 402.722 169.078 402.499 150.219 397.074C151.994 394.385 160.172 393.992 157.167 390.131C151.671 389.651 151.091 394.086 145.596 393.6C146.123 382.538 130.088 375.244 124.78 380.88C84.8414 359.151 49.5017 332.827 43.8422 276.818C40.0809 325.656 78.8831 360.416 109.753 378.572C120.046 384.624 136.726 383.546 140.974 397.074C110.672 385.936 77.3071 370.716 58.8698 346.191C31.0117 309.135 27.5375 217.745 76.2174 206.28C62.5549 217.37 43.895 235.526 47.3164 256.002C50.07 246.5 54.798 235.005 61.184 225.936C66.6208 218.231 74.6121 204.335 84.3082 210.908C49.3846 260.291 82.0761 338.604 116.689 360.07C93.5767 336.671 69.0581 305.602 72.749 254.848C73.9442 238.42 77.9809 220.381 88.9366 212.062C81.8594 230.921 73.5693 249.634 76.2174 274.504C78.889 299.591 95.2698 318.216 108.598 327.689C84.0681 309.481 66.2049 259.23 86.6283 223.627C90.1962 225.068 91.3152 228.959 93.565 231.724C83.201 246.476 83.8688 275.857 93.565 290.692C90.9344 271.54 85.4859 242.809 99.3475 231.724C90.4833 248.79 91.4207 275.664 102.81 289.537C95.7972 274.035 92.3757 238.614 109.753 231.724C112.348 238.374 108.569 251.409 113.227 256.002C112.893 245.275 114.035 236.007 117.849 229.41C121.704 229.404 121.798 233.171 125.94 232.878C124.897 238.409 118.546 244.713 122.472 251.38C124.306 245.504 125.26 238.743 128.248 234.032C130.651 234.718 135.847 232.603 136.345 235.186C133.867 238.907 128.594 245.896 131.723 251.38C135.32 242.252 137.792 232.005 147.91 229.41C152.105 243.324 160.014 253.536 173.343 258.311C172.394 268.317 181.346 273.965 189.536 271.03C195.032 281.441 217.983 283.28 225.386 273.35C229.391 279.437 243.152 278.875 248.512 274.504C252.265 278.64 256.247 282.888 261.225 283.749C276.947 286.473 283.676 273.725 284.351 261.779C293.253 265.652 302.018 259.418 302.854 251.38C329.367 252.065 335.832 232.702 335.237 206.28C353.785 213.158 358.587 233.804 367.608 250.22C366.99 252.604 362.139 250.495 365.297 253.694C372.46 258.152 380.527 252.68 382.644 245.597C390.02 259.371 417.545 246.078 403.459 232.878C404.225 239.036 402.561 242.773 399.987 245.597C390.26 246.459 385.786 242.065 380.328 238.661C377.628 243.277 376.168 249.136 369.92 250.22C363.741 239.446 359.411 226.814 352.58 216.691C371.042 215.343 386.118 212.894 391.89 230.564C390.906 224.992 388.171 221.178 386.111 216.691C396.01 212.15 404.328 221.934 413.86 215.531C421.058 210.703 421.424 199.302 421.957 186.624C444.389 202.735 454.706 237.126 472.836 253.694C456.725 231.255 443.733 205.706 426.584 184.31C431.013 177.238 426.751 165.902 417.327 165.814C418.815 168.204 422.122 172.241 419.645 175.065C378.182 131.646 324.137 86.6803 260.069 64.0482C236.932 55.8812 212.596 52.6295 187.228 45.5522C183.76 44.5856 179.741 41.4745 174.503 40.9296C175.13 40.9941 165.943 43.4724 172.189 40.9296C172.898 40.8594 173.565 40.7539 173.343 39.7697C117.791 24.6718 42.6119 14.8997 -20.9139 24.7365C3.79803 15.2336 41.8268 13.8743 72.749 14.3313C65.4257 13.1771 56.3915 13.7278 50.7789 10.863C138.079 7.97461 194.815 41.8144 260.069 57.1173C213.352 42.5643 169.371 25.2462 121.318 12.0173C122.472 12.0173 123.626 12.0173 124.78 12.0173ZM-123.822 473.395C-26.7082 488.218 66.8728 447.418 154.847 471.081C99.6287 491.897 26.2427 493.889 -41.7241 496.513C-68.7385 497.562 -95.8525 493.408 -120.354 488.423C-146.425 483.115 -170.123 480.748 -192.046 473.395C-236.76 458.379 -275.873 436.989 -320.399 428.289C-259.58 453.839 -194.308 483.238 -121.514 497.673C-48.5435 512.139 23.249 536.839 102.81 540.454C197.82 544.771 275.101 523.299 354.891 505.764C375.344 501.271 395.563 490.883 415.016 488.423C465.238 482.066 519.289 487.655 551.466 508.078C528.002 506.286 514.087 497.363 493.651 494.199C422.545 483.197 378.234 508.243 327.135 521.952C297.327 529.955 267.473 533.693 232.321 535.831C272.061 536.944 304.852 531.373 337.549 521.952C384.83 508.336 418.387 489.846 485.556 495.365C503.068 496.801 519.889 502.044 535.279 508.078C457.274 519.093 379.555 534.847 305.165 554.333C299.536 555.809 294.375 556.02 288.981 557.801C284.591 559.254 281.181 562.822 276.261 564.738C271.489 566.595 264.955 566.156 260.069 568.206C255.43 570.151 252.066 574.411 247.356 576.303C226.645 584.616 203.029 586.398 180.285 591.331C145.883 598.812 110.59 603.54 73.9091 605.21C12.5743 607.999 -46.9617 605.309 -101.852 595.953C-68.2346 613.295 -28.1553 613.16 19.552 610.992C71.4131 608.631 126.075 610.963 171.034 602.901C233.396 591.711 291.228 563.226 353.735 548.556C384.562 541.309 418.501 535.696 452.022 528.894C513.183 516.474 589.758 504.329 639.346 534.671C637.646 518.63 610.294 518.249 594.244 512.701C592.756 506.567 605.098 504.3 603.501 494.199C617.152 497.515 627.698 488.569 627.782 474.549C634.156 473.213 640.93 472.276 643.969 467.607C641.537 456.153 651.583 448.162 653.22 439.854C658.147 414.89 640.667 403.864 630.094 390.131C635.964 389.868 637.646 380.441 634.717 375.104C627.595 369.972 619.944 375.947 616.214 380.88C606.19 376.656 612.708 355.876 602.34 351.974C607.941 342.588 615.882 335.827 612.747 323.067C609.966 311.742 594.85 312.24 589.621 303.411C589.781 296.574 599.461 303.317 602.34 297.634C600.938 288.155 605.332 283.591 609.279 276.818C607.368 271.018 605.755 264.919 598.878 264.093C603.307 255.944 605.663 247.255 601.19 237.501C598.375 231.39 591.001 227.758 589.621 220.153C588.987 216.661 591.44 212.496 590.777 209.754C588.888 201.927 578.579 198.991 580.37 188.938C581.908 187.766 595.491 191.996 598.878 184.31C601.476 167.993 579.192 160.547 575.748 176.219C569.425 169.645 586.898 167.823 578.059 158.871C573.326 155.883 567.159 159.873 566.495 164.654C560.339 160.406 553.801 156.533 542.213 157.717C538.181 144.599 522.578 149.28 513.309 142.684C509.979 127.07 496.466 115.652 478.615 118.405C476.326 106.817 460.581 96.025 449.71 106.84C456.187 96.4702 445.03 84.5009 435.83 87.1841C427.912 89.4866 429.159 100.794 427.74 107.988C419.444 106.946 426.71 100.436 425.429 98.7433C418.032 98.0989 419.616 106.541 420.801 111.463C364.451 101.614 323.359 67.0888 273.949 43.244C202.203 8.61322 62.9357 -21.2604 -26.6965 20.1078C-39.8024 26.1599 -52.545 26.289 -62.5341 35.1473C-96.7137 40.344 -124.853 63.7904 -155.043 75.6191C-166.971 80.2885 -177.593 81.4075 -187.424 87.1841C-196.587 92.5624 -204.531 98.9015 -214.016 103.366C-270.254 129.818 -309.941 181.105 -326.175 251.38C-328.185 249.523 -328.683 246.171 -328.49 242.123C-330.429 279.091 -314.599 299.82 -296.114 320.758C-276.048 343.49 -251.928 367.833 -225.576 383.2C-187.594 405.346 -140.554 419.841 -87.9784 423.667C-49.4927 426.461 -12.495 419.108 25.3463 414.416C53.9953 410.865 83.6228 404.473 112.061 402.851C119.255 402.446 126.842 402.37 134.031 402.851C184.761 406.254 233.758 418.376 263.543 447.951C253.707 450.558 246.475 443.721 239.255 439.854C212.239 425.377 175.932 417.157 130.568 420.198C85.0171 423.25 37.9016 432.976 -11.663 435.232C-44.5127 436.726 -80.4207 436.438 -113.417 434.072C-161.411 430.638 -195.485 408.241 -233.672 392.446C-202.159 408.616 -163.579 432.091 -119.199 436.386C-79.0849 440.27 -33.5746 439.374 7.99872 437.54C87.6828 434.042 184.873 402.335 247.356 449.111C226.267 457.887 210.059 445.537 191.85 441.014C130.686 425.828 54.8918 443.979 -7.04047 446.791C-120.324 451.941 -206.148 433.48 -264.893 383.2C-210.595 434.364 -127.665 453.95 -17.4397 449.111C58.6707 445.765 154.718 421.628 220.759 453.733C209.778 459.709 193.221 460.119 181.445 465.298C170.566 459.211 156.446 450.212 143.288 450.259C156.042 454.085 169.441 457.254 176.817 466.452C167.361 470.612 158.72 463.078 150.219 460.676C140.792 457.998 130.457 455.667 119.003 454.887C36.595 449.269 -45.579 479.043 -131.919 468.761C-62.7509 479.611 14.9589 460.301 83.1541 457.202C111.393 455.919 140.306 457.6 162.944 469.921C74.7234 447.213 -22.4841 484.175 -123.822 473.395Z" fill="#F0F1F2"/>
<path fill-rule="evenodd" clip-rule="evenodd" d="M2.21001 67.522C16.7279 74.2068 41.3988 76.896 50.7786 84.8696C98.0641 97.958 138.138 124.685 171.034 157.717C146.351 124.586 101.679 101.42 58.8695 82.5496C59.8127 82.3329 60.0295 81.3953 61.1836 81.3953C45.4823 81.7 24.1567 68.5883 2.21001 67.522Z" fill="#F0F1F2"/>
<path fill-rule="evenodd" clip-rule="evenodd" d="M121.317 104.52C118.4 98.1165 109.811 92.7908 101.656 88.3382C88.4735 81.132 72.3153 76.2518 54.2471 72.1507C54.8388 76.6092 66.9955 75.537 64.6579 79.0873C82.1637 79.9954 105.651 94.1501 121.317 104.52Z" fill="#F0F1F2"/>
<path fill-rule="evenodd" clip-rule="evenodd" d="M13.7756 126.49C18.6852 132.061 31.3282 149.743 41.5224 157.716C38.6165 171.83 19.6343 168.344 12.6215 160.025C12.8382 170.606 33.2617 176.599 43.8425 168.121C46.0102 165.913 43.157 166.03 43.8425 162.339C51.8454 163.716 50.246 170.629 58.87 169.276C56.9308 162.737 49.1914 161.999 46.1508 156.556C66.1582 152.748 70.5874 174.519 84.3084 180.841C83.7343 189.892 89.0364 193.08 93.5652 197.034C101.252 195.845 107.421 193.156 107.433 184.309C111.094 185.762 118.101 188.404 122.472 185.469C123.239 179.3 121.576 175.574 119.004 172.75C117.574 174.361 123.673 180.062 120.158 184.309C112.875 185.809 111.165 181.737 106.279 180.841C106.208 186.166 102.998 188.346 101.656 192.4C89.5754 194.081 87.4838 185.768 85.4626 177.372C84.3436 177.402 84.5721 178.784 84.3084 179.687C75.5438 166.001 65.1798 148.079 41.5224 153.094C29.8987 146.603 24.374 134.012 13.7756 126.49Z" fill="#F0F1F2"/>
<path fill-rule="evenodd" clip-rule="evenodd" d="M202.256 127.65C210.809 143.375 222.48 166.013 227.698 188.938C225.547 171.391 215.568 141.729 202.256 127.65Z" fill="#F0F1F2"/>
<path fill-rule="evenodd" clip-rule="evenodd" d="M305.165 158.871C310.749 167.553 315.779 186.799 322.512 198.188C320.292 181.52 314.228 168.702 305.165 158.871Z" fill="#F0F1F2"/>
<path fill-rule="evenodd" clip-rule="evenodd" d="M559.561 187.784C561.685 195.916 556.357 204.944 546.837 205.12C557.066 209.537 560.419 220.839 563.028 232.878C567.262 221.302 560.888 210.358 554.938 205.12C557.226 202.794 560.403 201.347 561.872 198.189C562.463 193.35 561.227 190.35 559.561 187.784Z" fill="#F0F1F2"/>
<path fill-rule="evenodd" clip-rule="evenodd" d="M486.705 269.875C493.307 289.496 507.457 311.572 532.968 316.13C511.806 306.451 499.166 288.254 486.705 269.875Z" fill="#F0F1F2"/>
<path fill-rule="evenodd" clip-rule="evenodd" d="M107.433 299.942C111.293 307.647 116.519 313.98 123.626 318.444C121.236 313.88 114.094 304.09 107.433 299.942Z" fill="#F0F1F2"/>
<path fill-rule="evenodd" clip-rule="evenodd" d="M84.3083 420.198C115.236 419.893 146.018 410.32 176.817 413.261C207.224 416.167 229.906 430.978 250.823 444.482C222.72 408.767 142.397 404.901 84.3083 420.198Z" fill="#F0F1F2"/>
<path fill-rule="evenodd" clip-rule="evenodd" d="M-137.695 502.296C-72.7399 510.966 -23.4331 535.268 39.2139 546.236C-21.3592 533.189 -70.578 508.793 -137.695 502.296Z" fill="#F0F1F2"/>
<path fill-rule="evenodd" clip-rule="evenodd" d="M-150.415 525.42C-105.866 544.584 -60.8766 573.397 -0.0985413 579.772C61.6638 586.251 126.484 583.861 186.067 571.675C190.233 572.149 187.655 569.566 184.913 570.527C182.986 570.521 181.058 570.527 179.136 570.527C127.381 581.558 73.0999 584.904 20.7173 580.932C-49.2765 575.618 -96.9311 547.297 -150.415 525.42Z" fill="#F0F1F2"/>
<path fill-rule="evenodd" clip-rule="evenodd" d="M-150.414 555.487C-124.015 567.04 -95.5301 579.091 -61.3797 585.554C8.33286 598.742 95.686 592.525 166.412 584.394C107.696 587.206 28.9379 592.947 -32.473 586.708C-77.8661 582.097 -114.665 566.923 -150.414 555.487Z" fill="#F0F1F2"/>
<path fill-rule="evenodd" clip-rule="evenodd" d="M588.465 197.034C588.339 201.405 590.731 203.245 594.243 203.965C594.278 202.846 595.662 203.075 596.555 202.811C601.711 195.904 591.405 189.887 588.465 197.034Z" fill="#F0F1F2"/>
<path fill-rule="evenodd" clip-rule="evenodd" d="M305.165 224.781C300.805 224.272 299.741 227.061 297.075 228.25C295.834 236.821 300.233 239.739 308.639 238.661C311.332 234.208 309.868 225.52 305.165 224.781Z" fill="#F0F1F2"/>
<path fill-rule="evenodd" clip-rule="evenodd" d="M561.873 240.975C561.003 247.619 562.422 251.989 566.496 253.694C570.261 253.214 572.56 251.28 574.586 249.06C576.6 239.668 567.251 236.206 561.873 240.975Z" fill="#F0F1F2"/>
<path fill-rule="evenodd" clip-rule="evenodd" d="M467.057 412.101C462.549 411.838 461.057 414.591 457.8 415.57C457.8 417.884 457.8 420.198 457.8 422.512C459.295 424.112 462.824 423.655 465.897 423.667C468.472 422.085 469.3 414.931 467.057 412.101Z" fill="#F0F1F2"/>
</svg>
